<svg width="33" height="29" viewBox="0 0 33 29" fill="none" xmlns="http://www.w3.org/2000/svg">
<g clip-path="url(#clip0_17_9)">
<path d="M16.5073 28.9998L18.0156 28.1179L2.01299 0.00482178H0.00238037L16.5073 28.9998Z" fill="white"/>
<path d="M30.9869 0.00498282H32.9963L33 0" fill="white"/>
<path d="M8.50056 13.1771V14.9422H21.3355L20.3308 13.1771H8.50056Z" fill="white"/>
<path d="M15.8871 14.0591L17.3941 14.9423L21.408 7.89157L20.4033 6.1264L15.8871 14.0591Z" fill="white"/>
<path d="M15.4978 27.2298L16.5025 28.9962L22.9507 17.6678L21.946 15.9026L15.4978 27.2298Z" fill="white"/>
<path d="M32.9963 0.00500488H30.9869L24.9576 10.596L25.9635 12.3611L32.9963 0.00500488Z" fill="white"/>
<path d="M32.3085 1.23077H30.2979L24.2698 11.8218L25.2744 13.5869L32.3085 1.23077Z" fill="white"/>
<path d="M23.9517 12.3642L23.9562 12.3673L23.9532 12.3611L23.9517 12.3642Z" fill="white"/>
<path d="M0 0.00482178V0.00606748L1.00469 1.77123H12.8362L11.8303 0.00482178H0Z" fill="white"/>
<path d="M11.8303 0.00500488L12.8362 1.77141L11.8303 0.00500488Z" fill="white"/>
<path d="M16.5025 27.2299V28.9963H29.3374L28.3327 27.2299H16.5025Z" fill="white"/>
<path d="M20.4033 6.1264L19.3974 7.89157L25.9684 19.4343H27.9778L20.4033 6.1264Z" fill="white"/>
<path d="M16.3612 25.7139L17.3659 27.479L23.6446 16.4496L22.6399 14.6844L16.3612 25.7139Z" fill="white"/>
</g>
<defs>
<clipPath id="clip0_17_9">
<rect width="33" height="29" fill="white"/>
</clipPath>
</defs>
</svg>
